<?xml version="1.0" encoding="utf-8"?>
<!-- Generator: Adobe Illustrator 22.0.1, SVG Export Plug-In . SVG Version: 6.00 Build 0)  -->
<svg version="1.1" id="Слой_1" xmlns="http://www.w3.org/2000/svg" xmlns:xlink="http://www.w3.org/1999/xlink" x="0px" y="0px"
	 viewBox="0 0 42 42" style="enable-background:new 0 0 42 42;" xml:space="preserve">
<circle style="fill:#FDBE3B;" cx="21" cy="21" r="21"/>
<g id="Слой_2">
	<path style="fill:none;stroke:#FFFFFF;stroke-width:1.5;stroke-linecap:round;stroke-linejoin:round;stroke-miterlimit:10;" d="
		M18.526,30.661c4.663-3.981,3.936-9.656,3.936-9.656c-1.848,0.362-3.95,1.915-3.95,1.915s0.158-0.167,0.405-0.442
		c0.292-0.267,0.632-0.642,1.094-1.017c0.194-0.198,0.486-0.373,0.709-0.569c0.115-0.098,0.269-0.18,0.393-0.274
		c0.128-0.092,0.246-0.19,0.395-0.27c0.52-0.365,1.089-0.679,1.625-1.014c0,0-0.096-0.015-0.26-0.04
		c-0.089-0.016-0.196-0.035-0.317-0.057c-0.122-0.015-0.258-0.031-0.405-0.049c-0.162-0.021-0.337-0.044-0.519-0.068
		c-0.193-0.027-0.377-0.035-0.591-0.058c-0.453-0.049-0.927-0.1-1.402-0.152c0,0,0.032-0.017,0.096-0.051
		c0.064-0.034,0.148-0.093,0.28-0.154c0.259-0.127,0.589-0.351,1.049-0.595c0.438-0.265,0.999-0.546,1.642-0.866
		c0.644-0.327,1.416-0.618,2.336-0.89c0,0-0.107-0.048-0.28-0.126c-0.178-0.081-0.436-0.202-0.728-0.284
		c-0.295-0.096-0.647-0.215-0.983-0.272c-0.341-0.074-0.695-0.155-0.971-0.189c0,0,0.068-0.048,0.196-0.138
		c0.133-0.081,0.334-0.19,0.584-0.349c0.063-0.04,0.129-0.083,0.198-0.127c0.073-0.036,0.15-0.074,0.23-0.114
		c0.16-0.081,0.332-0.173,0.517-0.276c0.188-0.093,0.398-0.17,0.616-0.272c0.11-0.047,0.221-0.108,0.34-0.151
		c0.12-0.041,0.243-0.083,0.369-0.126c0.253-0.088,0.519-0.203,0.807-0.263c0.287-0.067,0.588-0.181,0.907-0.239
		c0.637-0.135,1.337-0.246,2.095-0.285c1.514-0.09,3.275,0.07,5.164,0.639c-0.995-1.703-2.617-3.103-4.415-3.933
		c-0.897-0.425-1.833-0.706-2.744-0.879c-0.456-0.097-0.905-0.117-1.345-0.165c-0.441-0.054-0.866-0.035-1.279-0.024
		c-0.207,0.008-0.41,0.015-0.607,0.023c-0.198,0.013-0.388,0.048-0.575,0.072c-0.373,0.057-0.733,0.103-1.063,0.177
		c-0.327,0.084-0.633,0.168-0.916,0.249c-0.141,0.041-0.277,0.081-0.407,0.119c-0.125,0.049-0.245,0.096-0.358,0.141
		c-0.452,0.182-0.808,0.33-1.043,0.443c-0.229,0.126-0.35,0.194-0.35,0.194c0.215-0.366,0.549-0.761,0.929-1.181
		c0.372-0.436,0.822-0.826,1.251-1.186c0.424-0.374,0.846-0.654,1.158-0.858c0.316-0.204,0.511-0.33,0.511-0.33
		c-2.276,0.47-4.122,1.385-5.466,2.396c-1.353,1.01-2.28,2.043-2.885,2.935c-0.628,0.877-0.934,1.616-1.138,2.089
		c-0.105,0.235-0.154,0.427-0.189,0.551c-0.032,0.125-0.049,0.188-0.049,0.188c-0.185-0.603-0.221-1.249-0.181-1.906
		c0.023-0.326,0.05-0.664,0.118-0.973c0.066-0.309,0.146-0.611,0.232-0.894c0.086-0.284,0.178-0.55,0.267-0.788
		c0.1-0.229,0.196-0.431,0.28-0.6c0.168-0.337,0.285-0.536,0.285-0.536c-1.604,1.551-2.709,3.333-3.336,5.026
		c-0.177,0.413-0.297,0.835-0.407,1.242c-0.105,0.408-0.219,0.792-0.276,1.178c-0.109,0.774-0.216,1.466-0.193,2.111
		c-0.027,1.274,0.192,2.258,0.328,2.907c0.184,0.651,0.325,0.985,0.325,0.985c-0.25-0.294-0.532-0.709-0.74-1.179
		c-0.206-0.468-0.388-0.994-0.532-1.492c-0.132-0.495-0.198-0.958-0.251-1.3c-0.05-0.342-0.071-0.559-0.071-0.559
		c0.02,0.214-0.163,0.914-0.332,1.647c-0.128,0.74-0.263,1.513-0.279,1.829c-0.009,0.543-0.002,1.083,0.022,1.616
		c0.033,0.532,0.122,1.058,0.205,1.571c0.337,1.716,1.022,3.282,1.898,4.509c1.331,1.837,2.935,2.773,4.391,3.099
		c0.117,0.029,0.241,0.045,0.356,0.06c0.899,0.109,1.59-0.071,2.155-0.435"/>
	<path style="fill:none;stroke:#FFFFFF;stroke-width:1.5;stroke-linecap:round;stroke-linejoin:round;stroke-miterlimit:10;" d="
		M24.636,11.938"/>
	<path style="fill:none;stroke:#FFFFFF;stroke-width:1.5;stroke-linecap:round;stroke-linejoin:round;stroke-miterlimit:10;" d="
		M22.97,34.229c0,0-0.142-0.036-0.397-0.13c-0.126-0.051-0.282-0.114-0.464-0.187c-0.184-0.07-0.392-0.156-0.615-0.276
		c-0.907-0.431-2.145-1.199-3.327-2.424l0.018-0.026c0,0-0.017-0.017-0.051-0.051c-0.034-0.033-0.083-0.084-0.14-0.156
		c-0.118-0.141-0.292-0.348-0.512-0.611c-0.404-0.553-0.974-1.36-1.448-2.44c-0.477-1.075-0.848-2.418-0.934-3.889
		c-0.084-1.468,0.097-3.055,0.621-4.535c0.513-1.482,1.347-2.846,2.335-3.935c0.985-1.095,2.114-1.908,3.147-2.469
		c0.265-0.128,0.519-0.25,0.761-0.366c0.238-0.125,0.487-0.188,0.708-0.277c0.226-0.077,0.431-0.171,0.632-0.219
		c0.2-0.051,0.384-0.099,0.551-0.141c0.166-0.043,0.314-0.081,0.444-0.114"/>
</g>
</svg>
