<?xml version="1.0" encoding="utf-8"?>
<!-- Generator: Adobe Illustrator 22.0.1, SVG Export Plug-In . SVG Version: 6.00 Build 0)  -->
<svg version="1.1" id="Слой_1" xmlns="http://www.w3.org/2000/svg" xmlns:xlink="http://www.w3.org/1999/xlink" x="0px" y="0px"
	 viewBox="0 0 962.016 140.923" style="enable-background:new 0 0 962.016 140.923;" xml:space="preserve">
<g>
	<g>
		<path style="fill:#FFFFFF;" d="M93.095,3.851H62.531L26.228,49.779V3.851H0.5v133.222h25.728V77.881l41.227,59.192h30.184
			L46.397,63.307L93.095,3.851z M178.912,0.5c-12.495,0-24.154,3.125-34.978,9.373c-10.825,6.249-19.331,14.717-25.517,25.404
			c-6.186,10.687-9.279,22.401-9.279,35.139c0,19.019,6.641,35.442,19.922,49.268c13.281,13.827,29.959,20.739,50.034,20.739
			c19.164,0,35.462-6.731,48.896-20.196c13.433-13.463,20.151-29.916,20.151-49.358c0-19.621-6.808-36.256-20.424-49.902
			C214.102,7.324,197.833,0.5,178.912,0.5z M209.944,102.839c-8.494,8.694-18.777,13.041-30.85,13.041
			c-10.678,0-20.142-3.351-28.393-10.053c-10.618-8.572-15.926-20.225-15.926-34.958c0-13.223,4.216-24.12,12.649-32.694
			c8.432-8.573,18.837-12.86,31.215-12.86c12.254,0,22.659,4.392,31.214,13.177c8.554,8.785,12.833,19.517,12.833,32.196
			C222.686,83.428,218.438,94.144,209.944,102.839z M372.196,3.851l-31.282,92.92l-31-92.92h-24.802l-23.154,133.222h24.819
			l14.682-84.135l28.158,84.135h22.434l28.409-84.135l14.34,84.135h24.615L396.982,3.851H372.196z M439.598,137.073h25.819V27.579
			h44.637v109.494h25.728V3.851h-96.183V137.073z M607.125,3.851l-51.57,133.222h26.455l10.88-27.441h54.568l10.463,27.441h26.455
			L632.941,3.851H607.125z M602.25,84.907l17.942-45.736l17.836,45.736H602.25z M774.422,54.115h-44.637V3.851h-25.819v133.222
			h25.819V78.658h44.637v58.415h25.728V3.851h-25.728V54.115z M828.877,137.073h25.273V3.851h-25.273V137.073z M934.545,3.851
			c-12.169,0.423-19.586,0.755-22.249,0.996c-2.665,0.242-6.252,1.164-10.762,2.764c-4.51,1.6-8.474,4.077-11.895,7.427
			c-3.421,3.353-6.054,7.445-7.901,12.276c-1.847,4.831-2.77,10.508-2.77,17.031c0,18.3,8.772,29.956,26.316,34.968l-30.27,57.76
			h27.81l26.873-53.615h6.364v53.615h25.455V3.851H934.545z M936.061,58.733h-7.976c-7.734,0-13.354-1.087-16.858-3.26
			c-3.506-2.174-5.257-6.007-5.257-11.502c0-3.682,0.875-6.777,2.628-9.283c1.753-2.505,4.019-4.135,6.799-4.89
			c2.778-0.754,7.341-1.132,13.686-1.132h6.979V58.733z"/>
	</g>
	<g>
		<path style="fill:none;stroke:#E3E8F0;stroke-miterlimit:10;" d="M93.095,3.851H62.531L26.228,49.779V3.851H0.5v133.222h25.728
			V77.881l41.227,59.192h30.184L46.397,63.307L93.095,3.851z M178.912,0.5c-12.495,0-24.154,3.125-34.978,9.373
			c-10.825,6.249-19.331,14.717-25.517,25.404c-6.186,10.687-9.279,22.401-9.279,35.139c0,19.019,6.641,35.442,19.922,49.268
			c13.281,13.827,29.959,20.739,50.034,20.739c19.164,0,35.462-6.731,48.896-20.196c13.433-13.463,20.151-29.916,20.151-49.358
			c0-19.621-6.808-36.256-20.424-49.902C214.102,7.324,197.833,0.5,178.912,0.5z M209.944,102.839
			c-8.494,8.694-18.777,13.041-30.85,13.041c-10.678,0-20.142-3.351-28.393-10.053c-10.618-8.572-15.926-20.225-15.926-34.958
			c0-13.223,4.216-24.12,12.649-32.694c8.432-8.573,18.837-12.86,31.215-12.86c12.254,0,22.659,4.392,31.214,13.177
			c8.554,8.785,12.833,19.517,12.833,32.196C222.686,83.428,218.438,94.144,209.944,102.839z M372.196,3.851l-31.282,92.92
			l-31-92.92h-24.802l-23.154,133.222h24.819l14.682-84.135l28.158,84.135h22.434l28.409-84.135l14.34,84.135h24.615L396.982,3.851
			H372.196z M439.598,137.073h25.819V27.579h44.637v109.494h25.728V3.851h-96.183V137.073z M607.125,3.851l-51.57,133.222h26.455
			l10.88-27.441h54.568l10.463,27.441h26.455L632.941,3.851H607.125z M602.25,84.907l17.942-45.736l17.836,45.736H602.25z
			 M774.422,54.115h-44.637V3.851h-25.819v133.222h25.819V78.658h44.637v58.415h25.728V3.851h-25.728V54.115z M828.877,137.073
			h25.273V3.851h-25.273V137.073z M934.545,3.851c-12.169,0.423-19.586,0.755-22.249,0.996c-2.665,0.242-6.252,1.164-10.762,2.764
			c-4.51,1.6-8.474,4.077-11.895,7.427c-3.421,3.353-6.054,7.445-7.901,12.276c-1.847,4.831-2.77,10.508-2.77,17.031
			c0,18.3,8.772,29.956,26.316,34.968l-30.27,57.76h27.81l26.873-53.615h6.364v53.615h25.455V3.851H934.545z M936.061,58.733h-7.976
			c-7.734,0-13.354-1.087-16.858-3.26c-3.506-2.174-5.257-6.007-5.257-11.502c0-3.682,0.875-6.777,2.628-9.283
			c1.753-2.505,4.019-4.135,6.799-4.89c2.778-0.754,7.341-1.132,13.686-1.132h6.979V58.733z"/>
	</g>
</g>
</svg>
