<?xml version="1.0" encoding="utf-8"?>
<!-- Generator: Adobe Illustrator 22.0.1, SVG Export Plug-In . SVG Version: 6.00 Build 0)  -->
<svg version="1.1" id="Слой_1" xmlns="http://www.w3.org/2000/svg" xmlns:xlink="http://www.w3.org/1999/xlink" x="0px" y="0px"
	 viewBox="0 0 40 40" style="enable-background:new 0 0 40 40;" xml:space="preserve">
<circle style="fill:#1774EB;" cx="20" cy="20" r="20"/>
<g>
	<path style="fill:#FFFFFF;" d="M23.719,21h-2.344v7H18.25v-7h-2.531v-2.906h2.531v-2.188c0-0.833,0.156-1.542,0.469-2.125
		c0.313-0.583,0.755-1.026,1.328-1.328C20.619,12.151,21.281,12,22.031,12c0.333,0,0.688,0.016,1.063,0.047s0.666,0.068,0.875,0.109
		l0.313,0.031v2.469h-1.25c-0.584,0-1.006,0.151-1.266,0.453c-0.261,0.302-0.391,0.672-0.391,1.109v1.875h2.781L23.719,21z"/>
</g>
</svg>
