<?xml version="1.0" encoding="utf-8"?>
<!-- Generator: Adobe Illustrator 22.0.1, SVG Export Plug-In . SVG Version: 6.00 Build 0)  -->
<svg version="1.1" id="Слой_1" xmlns="http://www.w3.org/2000/svg" xmlns:xlink="http://www.w3.org/1999/xlink" x="0px" y="0px"
	 viewBox="0 0 40 40" style="enable-background:new 0 0 40 40;" xml:space="preserve">
<linearGradient id="SVGID_1_" gradientUnits="userSpaceOnUse" x1="5.8579" y1="34.1421" x2="34.1421" y2="5.8579">
	<stop  offset="0" style="stop-color:#F7D03B"/>
	<stop  offset="0.5" style="stop-color:#E04074"/>
	<stop  offset="1" style="stop-color:#922BC3"/>
</linearGradient>
<circle style="fill:url(#SVGID_1_);" cx="20" cy="20" r="20"/>
<g>
	<path style="fill:#FFFFFF;" d="M27.404,16.945c0.021,0.598,0.033,1.616,0.033,3.055c0,1.439-0.012,2.457-0.033,3.055
		c-0.066,1.351-0.471,2.396-1.212,3.138c-0.742,0.741-1.788,1.134-3.138,1.179c-0.598,0.044-1.616,0.066-3.055,0.066
		c-1.439,0-2.457-0.022-3.055-0.066c-1.351-0.066-2.391-0.465-3.121-1.195c-0.288-0.266-0.521-0.575-0.697-0.93
		c-0.178-0.354-0.305-0.697-0.382-1.029c-0.078-0.332-0.116-0.719-0.116-1.162c-0.045-0.598-0.066-1.615-0.066-3.055
		c0-1.438,0.021-2.468,0.066-3.088c0.066-1.328,0.465-2.357,1.195-3.088c0.73-0.752,1.771-1.162,3.121-1.229
		c0.598-0.022,1.615-0.033,3.055-0.033c1.438,0,2.457,0.011,3.055,0.033c1.35,0.066,2.396,0.471,3.138,1.212
		C26.934,14.549,27.338,15.595,27.404,16.945z M25.811,24.383c0.066-0.177,0.121-0.403,0.166-0.681
		c0.044-0.276,0.077-0.608,0.1-0.996c0.021-0.387,0.033-0.702,0.033-0.946c0-0.243,0-0.586,0-1.029c0-0.442,0-0.691,0-0.747
		c0-0.055,0-0.299,0-0.73s0-0.769,0-1.013c0-0.243-0.012-0.559-0.033-0.946c-0.022-0.387-0.056-0.719-0.1-0.996
		c-0.045-0.276-0.1-0.503-0.166-0.681c-0.266-0.686-0.742-1.162-1.428-1.428c-0.178-0.066-0.404-0.122-0.681-0.166
		c-0.277-0.044-0.609-0.077-0.996-0.1c-0.388-0.022-0.697-0.033-0.93-0.033s-0.576,0-1.029,0c-0.454,0-0.703,0-0.747,0
		c-0.045,0-0.288,0-0.73,0c-0.443,0-0.786,0-1.029,0c-0.244,0-0.56,0.011-0.946,0.033c-0.388,0.022-0.72,0.056-0.996,0.1
		c-0.277,0.044-0.504,0.1-0.681,0.166c-0.687,0.266-1.162,0.742-1.428,1.428c-0.066,0.177-0.122,0.404-0.166,0.681
		c-0.045,0.277-0.078,0.609-0.1,0.996c-0.022,0.388-0.033,0.697-0.033,0.93s0,0.576,0,1.029c0,0.454,0,0.703,0,0.747
		c0,0.089,0,0.293,0,0.614c0,0.321,0,0.587,0,0.797c0,0.211,0.005,0.481,0.017,0.813c0.011,0.332,0.027,0.614,0.05,0.847
		c0.021,0.232,0.055,0.471,0.1,0.714c0.044,0.244,0.088,0.443,0.133,0.598c0.287,0.687,0.764,1.162,1.428,1.428
		c0.177,0.066,0.403,0.122,0.681,0.166c0.276,0.045,0.608,0.078,0.996,0.1c0.387,0.022,0.697,0.033,0.93,0.033s0.575,0,1.029,0
		c0.453,0,0.702,0,0.747,0c0.066,0,0.315,0,0.747,0s0.769,0,1.013,0c0.243,0,0.559-0.011,0.946-0.033
		c0.387-0.021,0.719-0.055,0.996-0.1c0.276-0.044,0.503-0.1,0.681-0.166C25.068,25.523,25.545,25.047,25.811,24.383z M17.294,17.294
		c0.741-0.741,1.644-1.112,2.706-1.112s1.964,0.371,2.706,1.112c0.741,0.742,1.112,1.644,1.112,2.706s-0.371,1.965-1.112,2.706
		c-0.742,0.742-1.644,1.112-2.706,1.112s-1.965-0.37-2.706-1.112c-0.742-0.741-1.112-1.644-1.112-2.706S16.552,18.036,17.294,17.294
		z M18.24,21.76c0.486,0.487,1.073,0.73,1.76,0.73c0.686,0,1.272-0.243,1.76-0.73c0.486-0.486,0.73-1.073,0.73-1.76
		c0-0.686-0.244-1.272-0.73-1.76c-0.487-0.487-1.074-0.73-1.76-0.73c-0.687,0-1.273,0.244-1.76,0.73
		c-0.487,0.487-0.73,1.074-0.73,1.76C17.51,20.687,17.753,21.273,18.24,21.76z M24.599,15.401c0.166,0.166,0.249,0.371,0.249,0.614
		c0,0.244-0.083,0.454-0.249,0.631c-0.166,0.177-0.371,0.266-0.614,0.266c-0.244,0-0.454-0.088-0.631-0.266
		c-0.178-0.177-0.266-0.387-0.266-0.631c0-0.243,0.088-0.448,0.266-0.614c0.177-0.166,0.387-0.249,0.631-0.249
		C24.228,15.152,24.433,15.235,24.599,15.401z"/>
</g>
</svg>
