<?xml version="1.0" encoding="utf-8"?>
<!-- Generator: Adobe Illustrator 22.0.1, SVG Export Plug-In . SVG Version: 6.00 Build 0)  -->
<svg version="1.1" id="Слой_1" xmlns="http://www.w3.org/2000/svg" xmlns:xlink="http://www.w3.org/1999/xlink" x="0px" y="0px"
	 viewBox="0 0 343.3 241.9" style="enable-background:new 0 0 343.3 241.9;" xml:space="preserve">
<style type="text/css">
	.st0{fill:#FFFFFF;}
	.st1{fill:#FFAA01;}
</style>
<g>
	<g>
		<polygon class="st0" points="68.1,196.7 37.1,196.7 37.1,179 26.8,179 26.8,226.9 37.1,226.9 37.1,207.2 68.1,207.2 68.1,226.9 
			78.5,226.9 78.5,179 68.1,179 		"/>
		<path class="st0" d="M191.3,211.4c0,1.4-0.5,2.5-1.6,3.5c-1.2,1-2.5,1.5-4.2,1.5h-19.5c-1.7,0-3.1-0.5-4.2-1.5
			c-1.1-1-1.6-2.1-1.6-3.5V179h-10.4v33.6c0,2,0.5,3.9,1.3,5.7c0.9,1.7,2.1,3.3,3.6,4.5c1.5,1.3,3.2,2.3,5.2,3
			c1.9,0.7,4,1.1,6.2,1.1h19.5c2.2,0,4.4-0.4,6.4-1.2c2-0.8,3.7-1.8,5.1-3.1c1.5-1.3,2.6-2.8,3.5-4.5c0.8-1.7,1.3-3.6,1.3-5.5V179
			h-10.4V211.4z"/>
		<path class="st0" d="M261.2,194.8l-0.1-1.5c-0.1-2-0.5-3.9-1.4-5.7c-0.8-1.7-2-3.3-3.4-4.5c-1.4-1.3-3-2.3-4.8-3
			c-1.8-0.7-3.8-1.1-5.8-1.1h-20.9c-2.1,0-4.1,0.4-6,1.2c-1.8,0.8-3.5,1.8-4.9,3.1c-1.4,1.3-2.5,2.8-3.3,4.5
			c-0.8,1.7-1.2,3.6-1.2,5.5c0,2,0.4,3.9,1.2,5.7c0.8,1.7,2,3.3,3.4,4.5c1.4,1.3,3.1,2.3,4.9,3c1.9,0.7,3.8,1.1,5.8,1.1h20.9
			c1.6,0,2.9,0.5,4,1.5c1,1,1.5,2.1,1.5,3.5c0,1.4-0.5,2.5-1.6,3.5c-1.1,1-2.4,1.5-4,1.5h-20.9c-1.6,0-2.9-0.5-4-1.5
			c-1-1-1.6-2.1-1.6-3.5v-1.5h-9.8l0,1.5c0.1,2,0.5,3.9,1.3,5.7c0.8,1.7,1.9,3.3,3.3,4.5c1.4,1.3,3,2.3,4.8,3
			c1.8,0.7,3.8,1.1,5.9,1.1h20.9c2.1,0,4.1-0.4,6-1.2c1.8-0.8,3.5-1.8,4.8-3.1c1.4-1.3,2.5-2.8,3.3-4.5c0.8-1.7,1.2-3.6,1.2-5.5
			c0-2-0.4-3.9-1.3-5.7c-0.8-1.7-2-3.2-3.4-4.5c-1.4-1.3-3-2.3-4.9-3c-1.8-0.7-3.8-1.1-5.8-1.1h-20.9c-1.6,0-2.9-0.5-4-1.5
			c-1-1-1.6-2.1-1.6-3.5c0-1.4,0.5-2.5,1.6-3.5c1.1-1,2.4-1.5,4-1.5h20.9c1.6,0,2.9,0.5,4,1.5c1,1,1.6,2.1,1.6,3.5v1.5H261.2z"/>
		<polygon class="st0" points="316.5,189.1 316.5,179 269.2,179 269.2,226.9 316.4,226.9 316.4,216.2 279.5,216.2 279.5,207.4 
			311.6,207.4 311.6,197.3 279.5,197.3 279.5,189.1 		"/>
		<path class="st0" d="M129.2,179H98.7c-6.6,0-12,5.4-12,12v24c0,6.6,5.4,12,12,12h30.5c6.6,0,12-5.4,12-12v-24
			C141.2,184.4,135.8,179,129.2,179z M131.1,211.7c0,2.5-2.1,4.6-4.6,4.6h-25.2c-2.5,0-4.6-2.1-4.6-4.6v-17.5c0-2.5,2.1-4.6,4.6-4.6
			h25.2c2.5,0,4.6,2.1,4.6,4.6V211.7z"/>
	</g>
	<g>
		<g>
			<circle class="st1" cx="75.6" cy="118.5" r="48"/>
			<g>
				<path class="st0" d="M49.2,146V91h11.1l30.6,36.7V91h11.1v55H90.9l-30.6-37.3V146H49.2z"/>
			</g>
		</g>
		<g>
			<circle class="st1" cx="267.6" cy="118.5" r="48"/>
			<path class="st0" d="M255.2,103.8h40.1V91h-44c-7.1,0-12.9,5.9-12.9,13v29c0,7.2,5.8,13,12.9,13h45.7v-34.5h-26.8v12.4h14.1v9.3
				h-29c-2.7,0-5-2.3-5-5v-19.4C250.2,106,252.5,103.8,255.2,103.8z"/>
		</g>
		<g>
			<circle class="st1" cx="171.6" cy="118.5" r="48"/>
			<path class="st0" d="M186,146h15.6l-14.1-19.7c7.2-1.6,12.7-8,12.7-15.7v-3.5c0-8.9-7.2-16.1-16.1-16.1h-42.5v55h13.5v-19.3h18
				L186,146z M155.1,104.7h28.4c2,0,3.7,1.7,3.7,3.7v1.3c0,2-1.7,3.7-3.7,3.7h-28.4V104.7z"/>
		</g>
	</g>
	<g>
		<rect x="21.8" y="159.4" class="st0" width="299.7" height="3.9"/>
		<g>
			<polygon class="st0" points="241.2,39.4 241.2,25.5 221.7,25.5 221.7,33.4 171.6,17.8 21.7,64.3 22,73.7 171.6,27.3 321.3,73.7 
				321.6,64.3 			"/>
			<rect x="221.7" y="20.8" class="st0" width="19.4" height="2.4"/>
			<rect x="221.7" y="15" class="st0" width="19.4" height="2.9"/>
		</g>
	</g>
</g>
</svg>
