<?xml version="1.0" encoding="utf-8"?>
<!-- Generator: Adobe Illustrator 22.0.1, SVG Export Plug-In . SVG Version: 6.00 Build 0)  -->
<svg version="1.1" id="Слой_1" xmlns="http://www.w3.org/2000/svg" xmlns:xlink="http://www.w3.org/1999/xlink" x="0px" y="0px"
	 viewBox="0 0 42 42" style="enable-background:new 0 0 42 42;" xml:space="preserve">
<circle style="fill:#FDBE3B;" cx="21" cy="21" r="21"/>
<g id="Слой_2">
	<path style="fill:none;stroke:#FFFFFF;stroke-width:1.5;stroke-linecap:round;stroke-linejoin:round;stroke-miterlimit:10;" d="
		M22.535,18.803c-0.104,0.101-0.151,0.246-0.127,0.389l0.288,1.664l-1.494-0.786c-0.128-0.068-0.282-0.068-0.411,0l-1.489,0.786
		l0.28-1.664c0.026-0.142-0.02-0.287-0.122-0.389l-1.21-1.17l1.668-0.245c0.144-0.02,0.268-0.11,0.332-0.24l0.751-1.515l0.747,1.511
		c0.064,0.13,0.188,0.22,0.332,0.24l1.668,0.245L22.535,18.803z"/>
	<path style="fill:none;stroke:#FFFFFF;stroke-width:1.5;stroke-linecap:round;stroke-linejoin:round;stroke-miterlimit:10;" d="
		M18.057,26.807l-3.974,5.708l-0.511-2.813c-0.021-0.115-0.087-0.218-0.183-0.284c-0.073-0.051-0.16-0.078-0.249-0.079h-0.079
		l-2.817,0.507l4.049-5.782 M21.007,26.438c-0.46,0.023-0.915,0.113-1.35,0.266c-0.42,0.179-0.879,0.244-1.332,0.188h-0.022
		c-0.425-0.223-0.778-0.561-1.022-0.974c-0.192-0.274-0.407-0.531-0.642-0.769c-0.08-0.076-0.165-0.148-0.253-0.214
		c-0.377-0.245-0.787-0.433-1.219-0.559c-0.419-0.101-0.811-0.292-1.149-0.559c-0.029-0.03-0.055-0.062-0.079-0.096
		c-0.21-0.419-0.297-0.888-0.253-1.354c0.012-0.455-0.042-0.91-0.162-1.35c-0.157-0.407-0.374-0.788-0.642-1.131
		c-0.326-0.368-0.539-0.824-0.611-1.31c0.073-0.487,0.285-0.942,0.611-1.31c0.269-0.345,0.485-0.727,0.642-1.136
		c0.119-0.44,0.174-0.894,0.162-1.35c-0.044-0.468,0.044-0.938,0.253-1.358c0.338-0.331,0.762-0.56,1.223-0.664
		c0.433-0.125,0.845-0.313,1.223-0.559c0.336-0.283,0.63-0.613,0.873-0.978c0.253-0.407,0.616-0.735,1.048-0.943
		c0.457-0.064,0.922-0.001,1.345,0.183c0.437,0.149,0.893,0.234,1.354,0.253c0.462-0.023,0.918-0.113,1.354-0.266
		c0.424-0.182,0.89-0.241,1.345-0.17c0.426,0.217,0.782,0.55,1.026,0.961c0.244,0.366,0.538,0.695,0.873,0.978
		c0.377,0.245,0.787,0.433,1.219,0.559c0.464,0.101,0.89,0.333,1.227,0.668c0.21,0.419,0.297,0.888,0.253,1.354
		c-0.012,0.455,0.042,0.91,0.162,1.35c0.165,0.403,0.389,0.78,0.664,1.118c0.326,0.368,0.539,0.824,0.611,1.31
		c-0.073,0.487-0.285,0.942-0.611,1.31c-0.269,0.345-0.485,0.727-0.642,1.136c-0.119,0.44-0.174,0.894-0.162,1.35
		c0.044,0.468-0.044,0.938-0.253,1.358c-0.023,0.032-0.05,0.061-0.079,0.087c-0.338,0.276-0.733,0.473-1.157,0.576
		c-0.431,0.126-0.842,0.314-1.219,0.559c-0.336,0.283-0.63,0.613-0.873,0.978c-0.182,0.259-0.388,0.501-0.616,0.721
		c-0.117,0.111-0.255,0.197-0.406,0.253l0,0c-0.446,0.053-0.897-0.012-1.31-0.188C21.962,26.553,21.487,26.459,21.007,26.438z
		 M27.712,24.066l4.044,5.782l-2.817-0.511c-0.114-0.021-0.232,0.004-0.328,0.07c-0.097,0.066-0.163,0.168-0.183,0.284l-0.489,2.821
		l-3.996-5.704"/>
</g>
</svg>
