<?xml version="1.0" encoding="utf-8"?>
<!-- Generator: Adobe Illustrator 22.0.1, SVG Export Plug-In . SVG Version: 6.00 Build 0)  -->
<svg version="1.1" id="Слой_1" xmlns="http://www.w3.org/2000/svg" xmlns:xlink="http://www.w3.org/1999/xlink" x="0px" y="0px"
	 viewBox="0 0 646.126 142.922" style="enable-background:new 0 0 646.126 142.922;" xml:space="preserve">
<g>
	<g>
		<path style="fill:#FFFFFF;" d="M72.375,25.394c15.353,0,29.171,6.468,41.454,19.401l18.055-17.149
			c-7.5-8.681-16.427-15.376-26.784-20.084C94.742,2.854,83.971,0.5,72.784,0.5c-13.154,0-25.433,3.185-36.834,9.553
			c-11.403,6.37-20.161,14.789-26.277,25.261C3.557,45.786,0.5,57.76,0.5,71.231c0,20.822,6.715,37.892,20.146,51.212
			c13.429,13.319,30.686,19.979,51.77,19.979c11.433,0,21.605-1.885,30.518-5.651c8.912-3.767,18.378-10.522,28.398-20.265
			l-17.502-18.195c-7.432,7.356-14.249,12.428-20.451,15.217c-6.203,2.79-13.051,4.184-20.542,4.184
			c-8.782,0-16.766-1.992-23.952-5.977c-7.186-3.984-12.744-9.47-16.674-16.458c-3.93-6.989-5.895-14.989-5.895-24
			c0-12.935,4.437-23.816,13.311-32.643C48.501,29.807,59.417,25.394,72.375,25.394z M154.565,139.023h74.036v-25.261h-48.405
			V78.213h48.405v-24.71h-48.405V29.068h48.405V3.899h-74.036V139.023z M311.996,7.986c-6.546-2.724-17.227-4.088-32.039-4.088
			h-27.383v135.125h25.816V81.795c13.153,0,22.22-0.703,27.199-2.113c8.482-2.449,15.197-6.797,20.146-13.044
			c4.947-6.247,7.422-14.085,7.422-23.516c0-8.512-1.89-15.814-5.67-21.909C323.706,15.121,318.542,10.712,311.996,7.986z
			 M306.003,50.774c-1.445,2.12-3.427,3.64-5.947,4.561c-2.521,0.922-7.007,1.382-13.461,1.382h-8.206V28.976h7.284
			c7.99,0,13.461,0.891,16.411,2.672c4.057,2.397,6.085,6.206,6.085,11.429C308.17,46.089,307.447,48.654,306.003,50.774z
			 M419.547,64.618c4.917-3.674,8.466-7.609,10.649-11.804c2.181-4.194,3.273-8.865,3.273-14.008c0-7.9-2.4-14.758-7.2-20.577
			c-4.8-5.817-11.263-9.797-19.387-11.942c-5.723-1.592-14.77-2.388-27.14-2.388h-21.324v135.125h38.028
			c10.951,0,19.536-1.546,25.751-4.639c6.215-3.092,11.29-7.762,15.229-14.009c3.939-6.247,5.908-13.166,5.908-20.76
			c0-7.9-1.906-14.743-5.716-20.53C433.806,73.298,427.783,68.476,419.547,64.618z M384.235,28.425h6.664
			c5.922,0,10.334,1.24,13.234,3.72c2.9,2.48,4.351,5.833,4.351,10.058c0,4.533-1.527,8.115-4.581,10.748
			c-3.054,2.634-7.729,3.95-14.021,3.95h-5.646V28.425z M412.386,110.455c-3.728,2.695-10.956,4.041-21.68,4.041h-6.471V79.866
			h5.362c10.169,0,17.442,1.685,21.818,5.052c4.377,3.368,6.565,7.961,6.565,13.779C417.98,103.841,416.114,107.761,412.386,110.455
			z M466.108,139.023h25.631V3.899h-25.631V139.023z M606.93,113.528c-6.203,2.79-13.051,4.184-20.542,4.184
			c-8.782,0-16.766-1.992-23.952-5.977c-7.186-3.984-12.744-9.47-16.674-16.458c-3.93-6.989-5.895-14.989-5.895-24
			c0-12.935,4.437-23.816,13.311-32.643c8.874-8.827,19.79-13.241,32.748-13.241c15.352,0,29.171,6.468,41.454,19.401l18.055-17.149
			c-7.5-8.681-16.427-15.376-26.784-20.084C608.294,2.854,597.523,0.5,586.336,0.5c-13.154,0-25.433,3.185-36.834,9.553
			c-11.403,6.37-20.162,14.789-26.277,25.261c-6.117,10.472-9.174,22.445-9.174,35.917c0,20.822,6.715,37.892,20.146,51.212
			c13.43,13.319,30.687,19.979,51.77,19.979c11.433,0,21.605-1.885,30.518-5.651c8.912-3.767,18.378-10.522,28.398-20.265
			l-17.502-18.195C619.949,105.667,613.132,110.739,606.93,113.528z"/>
	</g>
	<g>
		<path style="fill:none;stroke:#E3E8F0;stroke-miterlimit:10;" d="M72.375,25.394c15.353,0,29.171,6.468,41.454,19.401
			l18.055-17.149c-7.5-8.681-16.427-15.376-26.784-20.084C94.742,2.854,83.971,0.5,72.784,0.5c-13.154,0-25.433,3.185-36.834,9.553
			c-11.403,6.37-20.161,14.789-26.277,25.261C3.557,45.786,0.5,57.76,0.5,71.231c0,20.822,6.715,37.892,20.146,51.212
			c13.429,13.319,30.686,19.979,51.77,19.979c11.433,0,21.605-1.885,30.518-5.651c8.912-3.767,18.378-10.522,28.398-20.265
			l-17.502-18.195c-7.432,7.356-14.249,12.428-20.451,15.217c-6.203,2.79-13.051,4.184-20.542,4.184
			c-8.782,0-16.766-1.992-23.952-5.977c-7.186-3.984-12.744-9.47-16.674-16.458c-3.93-6.989-5.895-14.989-5.895-24
			c0-12.935,4.437-23.816,13.311-32.643C48.501,29.807,59.417,25.394,72.375,25.394z M154.565,139.023h74.036v-25.261h-48.405
			V78.213h48.405v-24.71h-48.405V29.068h48.405V3.899h-74.036V139.023z M311.996,7.986c-6.546-2.724-17.227-4.088-32.039-4.088
			h-27.383v135.125h25.816V81.795c13.153,0,22.22-0.703,27.199-2.113c8.482-2.449,15.197-6.797,20.146-13.044
			c4.947-6.247,7.422-14.085,7.422-23.516c0-8.512-1.89-15.814-5.67-21.909C323.706,15.121,318.542,10.712,311.996,7.986z
			 M306.003,50.774c-1.445,2.12-3.427,3.64-5.947,4.561c-2.521,0.922-7.007,1.382-13.461,1.382h-8.206V28.976h7.284
			c7.99,0,13.461,0.891,16.411,2.672c4.057,2.397,6.085,6.206,6.085,11.429C308.17,46.089,307.447,48.654,306.003,50.774z
			 M419.547,64.618c4.917-3.674,8.466-7.609,10.649-11.804c2.181-4.194,3.273-8.865,3.273-14.008c0-7.9-2.4-14.758-7.2-20.577
			c-4.8-5.817-11.263-9.797-19.387-11.942c-5.723-1.592-14.77-2.388-27.14-2.388h-21.324v135.125h38.028
			c10.951,0,19.536-1.546,25.751-4.639c6.215-3.092,11.29-7.762,15.229-14.009c3.939-6.247,5.908-13.166,5.908-20.76
			c0-7.9-1.906-14.743-5.716-20.53C433.806,73.298,427.783,68.476,419.547,64.618z M384.235,28.425h6.664
			c5.922,0,10.334,1.24,13.234,3.72c2.9,2.48,4.351,5.833,4.351,10.058c0,4.533-1.527,8.115-4.581,10.748
			c-3.054,2.634-7.729,3.95-14.021,3.95h-5.646V28.425z M412.386,110.455c-3.728,2.695-10.956,4.041-21.68,4.041h-6.471V79.866
			h5.362c10.169,0,17.442,1.685,21.818,5.052c4.377,3.368,6.565,7.961,6.565,13.779C417.98,103.841,416.114,107.761,412.386,110.455
			z M466.108,139.023h25.631V3.899h-25.631V139.023z M606.93,113.528c-6.203,2.79-13.051,4.184-20.542,4.184
			c-8.782,0-16.766-1.992-23.952-5.977c-7.186-3.984-12.744-9.47-16.674-16.458c-3.93-6.989-5.895-14.989-5.895-24
			c0-12.935,4.437-23.816,13.311-32.643c8.874-8.827,19.79-13.241,32.748-13.241c15.352,0,29.171,6.468,41.454,19.401l18.055-17.149
			c-7.5-8.681-16.427-15.376-26.784-20.084C608.294,2.854,597.523,0.5,586.336,0.5c-13.154,0-25.433,3.185-36.834,9.553
			c-11.403,6.37-20.162,14.789-26.277,25.261c-6.117,10.472-9.174,22.445-9.174,35.917c0,20.822,6.715,37.892,20.146,51.212
			c13.43,13.319,30.687,19.979,51.77,19.979c11.433,0,21.605-1.885,30.518-5.651c8.912-3.767,18.378-10.522,28.398-20.265
			l-17.502-18.195C619.949,105.667,613.132,110.739,606.93,113.528z"/>
	</g>
</g>
</svg>
