<?xml version="1.0" encoding="utf-8"?>
<!-- Generator: Adobe Illustrator 22.0.1, SVG Export Plug-In . SVG Version: 6.00 Build 0)  -->
<svg version="1.1" id="Слой_1" xmlns="http://www.w3.org/2000/svg" xmlns:xlink="http://www.w3.org/1999/xlink" x="0px" y="0px"
	 viewBox="0 0 40 40" style="enable-background:new 0 0 40 40;" xml:space="preserve">
<circle style="fill:#F80000;" cx="20" cy="20" r="20"/>
<g>
	<path style="fill:#FFFFFF;" d="M28.188,15.875c0.063,0.25,0.119,0.563,0.172,0.938c0.052,0.375,0.088,0.745,0.109,1.109
		c0.021,0.365,0.036,0.703,0.047,1.016c0.01,0.313,0.016,0.573,0.016,0.781V20c0,1.875-0.115,3.261-0.344,4.156
		c-0.104,0.354-0.292,0.667-0.563,0.938c-0.271,0.271-0.594,0.459-0.969,0.563c-0.396,0.104-1.146,0.183-2.25,0.234
		c-1.104,0.053-2.115,0.089-3.031,0.109H20c-3.563,0-5.781-0.114-6.656-0.344c-0.813-0.229-1.323-0.729-1.531-1.5
		c-0.104-0.396-0.183-0.942-0.234-1.641c-0.053-0.697-0.089-1.286-0.109-1.766V20c0-1.854,0.114-3.229,0.344-4.125
		c0.104-0.375,0.291-0.698,0.563-0.969c0.271-0.271,0.594-0.458,0.969-0.563c0.396-0.104,1.146-0.182,2.25-0.234
		c1.104-0.052,2.114-0.088,3.031-0.109H20c3.563,0,5.781,0.115,6.656,0.344c0.375,0.104,0.697,0.292,0.969,0.563
		C27.896,15.177,28.083,15.5,28.188,15.875z M18.25,22.563L22.719,20l-4.469-2.531V22.563z"/>
</g>
</svg>
